# xmcd
#
# Track frame offsets:
#	150
#	13662
#	27800
#	65890
#	96235
#	107967
#	129092
#	141160
#	153255
#	167462
#	180515
#	197207
#	226627
#	248627
#	262882
#	283925
#
# Disc length: 4062 seconds
#
# Revision: 2
# Processed by: cddbd v1.5.1PL0 Copyright (c) Steve Scherf et al.
# Submitted via: audiograbber 1.83.01
#
DISCID=d20fdc10
DTITLE=Taj Mahal - The Very Best Of Taj Mahal - Disc 1
DYEAR=1998
DGENRE=Blues
TTITLE0=Six Days On The Road
TTITLE1=Fishin' Blues
TTITLE2=Ain't Gwine To Whistle Dixie (Any Mo')
TTITLE3=Senor Blues
TTITLE4=Think
TTITLE5=Squat That Rabbit
TTITLE6=Lovin' In My Baby's Eyes
TTITLE7=The Hustle Is On
TTITLE8=Here In The Dark
TTITLE9=Hard Way
TTITLE10=Strut
TTITLE11=Going To The River
TTITLE12=Every Wind (In The River)
TTITLE13=That's How Strong My Love Is
TTITLE14=Take A Giant Step
TTITLE15=Bank Robbery
EXTD=
EXTT0=
EXTT1=
EXTT2=
EXTT3=
EXTT4=
EXTT5=
EXTT6=
EXTT7=
EXTT8=
EXTT9=
EXTT10=
EXTT11=
EXTT12=
EXTT13=
EXTT14=
EXTT15=
PLAYORDER=
